<?xml version="1.0" encoding="utf-8"?>
<!-- Generator: Adobe Illustrator 16.0.0, SVG Export Plug-In . SVG Version: 6.00 Build 0)  -->
<!DOCTYPE svg PUBLIC "-//W3C//DTD SVG 1.1//EN" "http://www.w3.org/Graphics/SVG/1.1/DTD/svg11.dtd">
<svg version="1.1" id="Layer_1" xmlns:sketch="http://www.bohemiancoding.com/sketch/ns"
	 xmlns="http://www.w3.org/2000/svg" xmlns:xlink="http://www.w3.org/1999/xlink" x="0px" y="0px" width="100px" height="100px"
	 viewBox="-38 -38 100 100" enable-background="new -38 -38 100 100" xml:space="preserve">
<title></title>
<desc></desc>
<g id="miu">
	<g id="Artboard-1" transform="translate(-215.000000, -155.000000)">
		<g id="slice" transform="translate(215.000000, 119.000000)">
		</g>
		<path id="circle-arrow_down-download-outline-stroke" fill="#FFFFFF" stroke="#FFFFFF" stroke-miterlimit="10" d="M224.89,182.174
			l-12.803-12.865l-2.983,2.993l17.896,17.98l17.892-17.972l-2.989-2.999l-12.805,12.871v-38.485h-4.208V182.174L224.89,182.174z
			 M178.497,167c0-26.91,21.715-48.727,48.504-48.727c26.791,0,48.502,21.817,48.502,48.727c0,26.911-21.72,48.726-48.502,48.726
			C200.216,215.727,178.497,193.911,178.497,167z M271.286,167c0-24.569-19.831-44.495-44.285-44.495
			c-24.457,0-44.286,19.926-44.286,44.495s19.829,44.488,44.286,44.488C251.455,211.488,271.286,191.569,271.286,167z"/>
	</g>
</g>
</svg>
