<?xml version="1.0" encoding="utf-8"?>
<!-- Generator: Adobe Illustrator 16.0.0, SVG Export Plug-In . SVG Version: 6.00 Build 0)  -->
<!DOCTYPE svg PUBLIC "-//W3C//DTD SVG 1.1//EN" "http://www.w3.org/Graphics/SVG/1.1/DTD/svg11.dtd">
<svg version="1.1" id="Layer_1" xmlns="http://www.w3.org/2000/svg" xmlns:xlink="http://www.w3.org/1999/xlink" x="0px" y="0px"
	 width="453.823px" height="85.961px" viewBox="0 0 453.823 85.961" enable-background="new 0 0 453.823 85.961"
	 xml:space="preserve">
<symbol  id="RSS" viewBox="-9.82 -9.821 19.64 19.644">
	<path id="circle_3_" fill="#29ABE2" d="M-4.557-7.194c0-1.454-1.179-2.627-2.635-2.627c-1.45,0-2.629,1.174-2.629,2.627
		c0,1.449,1.179,2.636,2.629,2.636C-5.735-4.558-4.557-5.745-4.557-7.194z"/>
	<path fill="#29ABE2" d="M3.082-9.674h-3.463c-0.045,2.469-1.023,4.782-2.765,6.526C-4.891-1.4-7.193-0.419-9.65-0.375v3.451
		C-2.672,2.982,2.988-2.685,3.082-9.674L3.082-9.674z"/>
	<path fill="#29ABE2" d="M9.82-9.674H6.365C6.269-0.869-0.859,6.276-9.644,6.372v3.451C1.046,9.726,9.724,1.033,9.82-9.674
		L9.82-9.674z"/>
</symbol>
<g>
	<path fill="#FFFFFF" d="M30.691,47.922c-2.022,1.688-4.91,2.531-8.664,2.531h-7.193v12.422H7.663V28.329h14.833
		c3.419,0,6.146,0.891,8.179,2.672s3.05,4.539,3.05,8.273C33.725,43.352,32.713,46.235,30.691,47.922z M25.182,35.477
		c-0.914-0.766-2.195-1.148-3.842-1.148h-6.505V44.5h6.505c1.647,0,2.928-0.414,3.842-1.242s1.372-2.141,1.372-3.938
		S26.096,36.243,25.182,35.477z"/>
	<path fill="#FFFFFF" d="M53.991,37.846c1.782,0.798,3.253,2.058,4.415,3.779c1.046,1.518,1.725,3.278,2.035,5.281
		c0.18,1.174,0.253,2.864,0.22,5.07H42.054c0.104,2.562,0.994,4.359,2.671,5.391c1.021,0.641,2.248,0.961,3.683,0.961
		c1.521,0,2.758-0.391,3.709-1.172c0.519-0.422,0.977-1.008,1.375-1.758h6.819c-0.18,1.516-1.005,3.055-2.477,4.617
		c-2.288,2.484-5.492,3.727-9.611,3.727c-3.4,0-6.4-1.048-8.999-3.143c-2.599-2.096-3.898-5.505-3.898-10.228
		c0-4.425,1.173-7.819,3.52-10.18c2.346-2.361,5.391-3.542,9.135-3.542C50.206,36.649,52.208,37.048,53.991,37.846z M43.998,43.617
		c-0.944,0.973-1.537,2.291-1.779,3.954h11.508c-0.122-1.773-0.714-3.119-1.779-4.037c-1.065-0.918-2.386-1.377-3.962-1.377
		C46.271,42.157,44.941,42.644,43.998,43.617z"/>
	<path fill="#FFFFFF" d="M83.007,38.793c1.672,1.383,2.509,3.676,2.509,6.879v17.203h-6.844V47.336c0-1.344-0.178-2.375-0.535-3.094
		c-0.652-1.312-1.893-1.969-3.723-1.969c-2.249,0-3.792,0.961-4.63,2.883c-0.434,1.016-0.651,2.312-0.651,3.891v13.828h-6.68v-25.5
		h6.469v3.727c0.855-1.312,1.665-2.258,2.427-2.836c1.369-1.031,3.104-1.547,5.205-1.547C79.183,36.719,81.334,37.411,83.007,38.793
		z"/>
	<path fill="#FFFFFF" d="M110.695,38.793c1.672,1.383,2.509,3.676,2.509,6.879v17.203h-6.844V47.336
		c0-1.344-0.178-2.375-0.535-3.094c-0.652-1.312-1.893-1.969-3.723-1.969c-2.249,0-3.792,0.961-4.63,2.883
		c-0.434,1.016-0.651,2.312-0.651,3.891v13.828h-6.68v-25.5h6.469v3.727c0.855-1.312,1.665-2.258,2.427-2.836
		c1.369-1.031,3.104-1.547,5.205-1.547C106.872,36.719,109.022,37.411,110.695,38.793z"/>
	<path fill="#FFFFFF" d="M124.65,34.282h-6.773v-6.164h6.773V34.282z M117.877,37.329h6.773v25.547h-6.773V37.329z"/>
	<path fill="#FFFFFF" d="M150.087,38.793c1.672,1.383,2.509,3.676,2.509,6.879v17.203h-6.844V47.336
		c0-1.344-0.178-2.375-0.535-3.094c-0.652-1.312-1.893-1.969-3.723-1.969c-2.249,0-3.792,0.961-4.63,2.883
		c-0.434,1.016-0.651,2.312-0.651,3.891v13.828h-6.68v-25.5h6.469v3.727c0.855-1.312,1.665-2.258,2.427-2.836
		c1.369-1.031,3.104-1.547,5.205-1.547C146.264,36.719,148.415,37.411,150.087,38.793z"/>
	<path fill="#FFFFFF" d="M173.823,37.846c1.782,0.798,3.253,2.058,4.415,3.779c1.046,1.518,1.725,3.278,2.035,5.281
		c0.18,1.174,0.253,2.864,0.22,5.07h-18.606c0.104,2.562,0.994,4.359,2.671,5.391c1.021,0.641,2.248,0.961,3.683,0.961
		c1.521,0,2.758-0.391,3.709-1.172c0.519-0.422,0.977-1.008,1.375-1.758h6.819c-0.18,1.516-1.005,3.055-2.477,4.617
		c-2.288,2.484-5.492,3.727-9.611,3.727c-3.4,0-6.4-1.048-8.999-3.143c-2.599-2.096-3.898-5.505-3.898-10.228
		c0-4.425,1.173-7.819,3.52-10.18c2.346-2.361,5.391-3.542,9.135-3.542C170.038,36.649,172.041,37.048,173.823,37.846z
		 M163.83,43.617c-0.944,0.973-1.537,2.291-1.779,3.954h11.508c-0.122-1.773-0.714-3.119-1.779-4.037
		c-1.065-0.918-2.386-1.377-3.962-1.377C166.103,42.157,164.773,42.644,163.83,43.617z"/>
	<path fill="#FFFFFF" d="M199.181,28.329l4.561,19.783l0.994,5.506l0.997-5.393l3.902-19.896h7.617l4.105,19.78l1.051,5.509
		l1.066-5.294l4.605-19.995h7.35l-9.719,34.547h-6.912l-4.172-20.203l-1.219-6.68l-1.219,6.68l-4.172,20.203h-6.704l-9.796-34.547
		H199.181z"/>
	<path fill="#FFFFFF" d="M253.419,37.846c1.782,0.798,3.254,2.058,4.414,3.779c1.047,1.518,1.726,3.278,2.036,5.281
		c0.18,1.174,0.253,2.864,0.22,5.07h-18.606c0.104,2.562,0.994,4.359,2.672,5.391c1.02,0.641,2.247,0.961,3.683,0.961
		c1.521,0,2.758-0.391,3.709-1.172c0.519-0.422,0.978-1.008,1.375-1.758h6.819c-0.18,1.516-1.005,3.055-2.477,4.617
		c-2.288,2.484-5.492,3.727-9.611,3.727c-3.399,0-6.399-1.048-8.998-3.143c-2.6-2.096-3.898-5.505-3.898-10.228
		c0-4.425,1.173-7.819,3.52-10.18c2.346-2.361,5.391-3.542,9.135-3.542C249.634,36.649,251.637,37.048,253.419,37.846z
		 M243.426,43.617c-0.944,0.973-1.537,2.291-1.779,3.954h11.508c-0.121-1.773-0.715-3.119-1.779-4.037
		c-1.065-0.918-2.386-1.377-3.962-1.377C245.698,42.157,244.369,42.644,243.426,43.617z"/>
	<path fill="#FFFFFF" d="M283.648,40.399c1.911,2.422,2.866,5.547,2.866,9.375c0,3.969-0.942,7.258-2.827,9.867
		s-4.516,3.914-7.892,3.914c-2.121,0-3.824-0.422-5.112-1.266c-0.77-0.5-1.603-1.375-2.497-2.625v3.211h-6.586v-34.5h6.68v12.281
		c0.849-1.188,1.784-2.094,2.807-2.719c1.211-0.781,2.752-1.172,4.624-1.172C279.092,36.766,281.737,37.977,283.648,40.399z
		 M278.065,55.961c0.961-1.391,1.441-3.219,1.441-5.484c0-1.812-0.236-3.312-0.709-4.5c-0.898-2.25-2.552-3.375-4.963-3.375
		c-2.441,0-4.119,1.102-5.033,3.305c-0.473,1.172-0.709,2.688-0.709,4.547c0,2.188,0.488,4,1.465,5.438s2.466,2.156,4.467,2.156
		C275.757,58.047,277.104,57.352,278.065,55.961z"/>
	<path fill="#FFFFFF" d="M322.009,29.079c2.424,0.797,4.387,2.258,5.888,4.383c1.204,1.719,2.025,3.578,2.463,5.578
		c0.438,2,0.657,3.906,0.657,5.719c0,4.594-0.923,8.484-2.768,11.672c-2.502,4.297-6.364,6.445-11.588,6.445h-14.895V28.329h14.895
		C318.804,28.36,320.586,28.61,322.009,29.079z M308.774,34.329v22.547h6.667c3.411,0,5.79-1.68,7.136-5.039
		c0.735-1.844,1.104-4.039,1.104-6.586c0-3.516-0.552-6.215-1.655-8.098c-1.103-1.883-3.298-2.824-6.584-2.824H308.774z"/>
	<path fill="#FFFFFF" d="M350.907,37.846c1.782,0.798,3.254,2.058,4.414,3.779c1.047,1.518,1.726,3.278,2.036,5.281
		c0.18,1.174,0.253,2.864,0.22,5.07h-18.606c0.104,2.562,0.994,4.359,2.672,5.391c1.02,0.641,2.247,0.961,3.683,0.961
		c1.521,0,2.758-0.391,3.709-1.172c0.519-0.422,0.978-1.008,1.375-1.758h6.819c-0.18,1.516-1.005,3.055-2.477,4.617
		c-2.288,2.484-5.492,3.727-9.611,3.727c-3.399,0-6.399-1.048-8.998-3.143c-2.6-2.096-3.898-5.505-3.898-10.228
		c0-4.425,1.173-7.819,3.52-10.18c2.346-2.361,5.391-3.542,9.135-3.542C347.122,36.649,349.125,37.048,350.907,37.846z
		 M340.914,43.617c-0.944,0.973-1.537,2.291-1.779,3.954h11.508c-0.121-1.773-0.715-3.119-1.779-4.037
		c-1.065-0.918-2.386-1.377-3.962-1.377C343.187,42.157,341.857,42.644,340.914,43.617z"/>
	<path fill="#FFFFFF" d="M364.503,54.719c0.142,1.188,0.447,2.031,0.918,2.531c0.832,0.891,2.371,1.336,4.616,1.336
		c1.318,0,2.367-0.195,3.144-0.586c0.777-0.391,1.166-0.977,1.166-1.758c0-0.75-0.313-1.32-0.939-1.711s-2.955-1.062-6.987-2.016
		c-2.903-0.719-4.948-1.617-6.136-2.695c-1.188-1.062-1.781-2.594-1.781-4.594c0-2.359,0.928-4.387,2.783-6.082
		s4.467-2.543,7.833-2.543c3.194,0,5.798,0.637,7.81,1.91s3.167,3.473,3.465,6.598h-6.68c-0.094-0.859-0.337-1.539-0.729-2.039
		c-0.736-0.906-1.99-1.359-3.761-1.359c-1.457,0-2.495,0.227-3.113,0.68c-0.619,0.453-0.929,0.984-0.929,1.594
		c0,0.766,0.329,1.32,0.987,1.664c0.657,0.359,2.982,0.977,6.974,1.852c2.661,0.625,4.656,1.57,5.984,2.836
		c1.312,1.281,1.969,2.883,1.969,4.805c0,2.531-0.943,4.598-2.83,6.199s-4.803,2.402-8.748,2.402c-4.023,0-6.994-0.848-8.912-2.543
		s-2.877-3.855-2.877-6.48H364.503z"/>
	<path fill="#FFFFFF" d="M391.253,34.282h-6.773v-6.164h6.773V34.282z M384.479,37.329h6.773v25.547h-6.773V37.329z"/>
	<path fill="#FFFFFF" d="M408.728,37.305c1.623,0.672,2.934,1.906,3.933,3.703v-3.68h6.516v24.234c0,3.297-0.555,5.781-1.664,7.453
		c-1.906,2.875-5.562,4.312-10.969,4.312c-3.266,0-5.93-0.641-7.992-1.922s-3.203-3.195-3.422-5.742h7.266
		c0.188,0.781,0.492,1.344,0.914,1.688c0.719,0.609,1.93,0.914,3.633,0.914c2.406,0,4.016-0.805,4.828-2.414
		c0.531-1.031,0.797-2.766,0.797-5.203v-1.641c-0.641,1.094-1.328,1.914-2.062,2.461c-1.328,1.016-3.055,1.523-5.18,1.523
		c-3.281,0-5.902-1.152-7.863-3.457s-2.941-5.426-2.941-9.363c0-3.797,0.944-6.988,2.832-9.574c1.889-2.586,4.564-3.879,8.029-3.879
		C406.66,36.719,407.775,36.915,408.728,37.305z M411.003,55.622c1.073-1.18,1.61-3.059,1.61-5.637c0-2.422-0.51-4.266-1.529-5.531
		c-1.019-1.266-2.384-1.898-4.096-1.898c-2.334,0-3.944,1.102-4.831,3.305c-0.467,1.172-0.7,2.617-0.7,4.336
		c0,1.484,0.249,2.805,0.747,3.961c0.902,2.156,2.521,3.234,4.854,3.234C408.614,57.391,409.929,56.801,411.003,55.622z"/>
	<path fill="#FFFFFF" d="M444.379,38.793c1.673,1.383,2.509,3.676,2.509,6.879v17.203h-6.844V47.336
		c0-1.344-0.179-2.375-0.535-3.094c-0.651-1.312-1.893-1.969-3.723-1.969c-2.249,0-3.792,0.961-4.63,2.883
		c-0.435,1.016-0.651,2.312-0.651,3.891v13.828h-6.68v-25.5h6.469v3.727c0.855-1.312,1.665-2.258,2.428-2.836
		c1.368-1.031,3.104-1.547,5.204-1.547C440.556,36.719,442.706,37.411,444.379,38.793z"/>
</g>
<rect x="384.09" y="37.213" fill="#2DABE2" width="8" height="26"/>
<use xlink:href="#RSS"  width="19.64" height="19.644" x="-9.82" y="-9.821" transform="matrix(1.8217 0 0 -1.8217 401.2812 17.8931)" overflow="visible"/>
</svg>
