<?xml version="1.0" ?><svg height="24px" version="1.1" viewBox="0 0 24 24" width="24px" xmlns="http://www.w3.org/2000/svg" xmlns:sketch="http://www.bohemiancoding.com/sketch/ns" xmlns:xlink="http://www.w3.org/1999/xlink"><title/><desc/><defs/><g fill="none" fill-rule="evenodd" id="miu" stroke="none" stroke-width="1"><g id="Artboard-1" transform="translate(-215.000000, -155.000000)"><g id="slice" transform="translate(215.000000, 119.000000)"/><path d="M227,170.081066 L223.964466,167.045532 L223.257359,167.752639 L227.5,171.99528 L231.742641,167.752639 L231.035534,167.045532 L227.998437,170.082629 L227.998437,161 L227,161 L227,170.081066 Z M216,166.5 C216,160.148725 221.148725,155 227.5,155 C233.851275,155 239,160.148725 239,166.5 C239,172.851275 233.851275,178 227.5,178 C221.148725,178 216,172.851275 216,166.5 Z M238,166.5 C238,160.70101 233.29899,156 227.5,156 C221.70101,156 217,160.70101 217,166.5 C217,172.29899 221.70101,177 227.5,177 C233.29899,177 238,172.29899 238,166.5 Z" fill="#000000" id="circle-arrow_down-download-outline-stroke"/></g></g></svg>