<?xml version="1.0" encoding="utf-8"?>
<!-- Generator: Adobe Illustrator 16.0.0, SVG Export Plug-In . SVG Version: 6.00 Build 0)  -->
<!DOCTYPE svg PUBLIC "-//W3C//DTD SVG 1.1//EN" "http://www.w3.org/Graphics/SVG/1.1/DTD/svg11.dtd">
<svg version="1.1" id="Layer_1" xmlns:sketch="http://www.bohemiancoding.com/sketch/ns"
	 xmlns="http://www.w3.org/2000/svg" xmlns:xlink="http://www.w3.org/1999/xlink" x="0px" y="0px" width="24px" height="24px"
	 viewBox="0 0 24 24" enable-background="new 0 0 24 24" xml:space="preserve">
<title></title>
<desc></desc>
<g id="miu">
	<g id="Artboard-1" transform="translate(-215.000000, -155.000000)">
		<g id="slice" transform="translate(215.000000, 119.000000)">
		</g>
		<path id="circle-arrow_down-download-outline-stroke" fill="#FFFFFF" stroke="#FFFFFF" stroke-miterlimit="10" d="M226.513,170.5
			l-2.953-2.968l-0.688,0.691L227,172.37l4.127-4.146l-0.689-0.691l-2.954,2.969v-8.877h-0.971V170.5z M215.812,167
			c0-6.207,5.009-11.239,11.188-11.239s11.188,5.032,11.188,11.239s-5.01,11.239-11.188,11.239S215.812,173.207,215.812,167z
			 M237.215,167c0-5.667-4.574-10.263-10.215-10.263s-10.215,4.596-10.215,10.263s4.574,10.262,10.215,10.262
			S237.215,172.667,237.215,167z"/>
	</g>
</g>
</svg>
